<svg width="32" height="32" viewBox="0 0 32 32" fill="none" xmlns="http://www.w3.org/2000/svg">
  <!-- Sheep body (fluffy cloud-like shape) -->
  <ellipse cx="16" cy="18" rx="12" ry="8" fill="#f0fdf4" stroke="#22c55e" stroke-width="1.5"/>
  
  <!-- Sheep head -->
  <circle cx="16" cy="12" r="6" fill="#ffffff" stroke="#22c55e" stroke-width="1.5"/>
  
  <!-- Sheep ears -->
  <ellipse cx="12" cy="9" rx="2" ry="3" fill="#f0fdf4" stroke="#22c55e" stroke-width="1"/>
  <ellipse cx="20" cy="9" rx="2" ry="3" fill="#f0fdf4" stroke="#22c55e" stroke-width="1"/>
  
  <!-- Sheep eyes -->
  <circle cx="14" cy="11" r="1.5" fill="#1f2937"/>
  <circle cx="18" cy="11" r="1.5" fill="#1f2937"/>
  <circle cx="14.3" cy="10.7" r="0.5" fill="#ffffff"/>
  <circle cx="18.3" cy="10.7" r="0.5" fill="#ffffff"/>
  
  <!-- Sheep nose -->
  <ellipse cx="16" cy="13.5" rx="1" ry="0.5" fill="#ef4444"/>
  
  <!-- Sheep legs -->
  <rect x="10" y="24" width="2" height="4" fill="#1f2937" rx="1"/>
  <rect x="14" y="24" width="2" height="4" fill="#1f2937" rx="1"/>
  <rect x="18" y="24" width="2" height="4" fill="#1f2937" rx="1"/>
  <rect x="22" y="24" width="2" height="4" fill="#1f2937" rx="1"/>
  
  <!-- Fluffy texture dots on body -->
  <circle cx="12" cy="16" r="1" fill="#dcfce7" opacity="0.8"/>
  <circle cx="20" cy="17" r="1" fill="#dcfce7" opacity="0.8"/>
  <circle cx="16" cy="20" r="1" fill="#dcfce7" opacity="0.8"/>
  <circle cx="14" cy="18" r="0.8" fill="#dcfce7" opacity="0.6"/>
  <circle cx="18" cy="19" r="0.8" fill="#dcfce7" opacity="0.6"/>
</svg>